<?xml version="1.0" encoding="utf-8"?>
<!-- Generator: Adobe Illustrator 22.1.0, SVG Export Plug-In . SVG Version: 6.00 Build 0)  -->
<svg version="1.1" id="Outline" xmlns="http://www.w3.org/2000/svg" xmlns:xlink="http://www.w3.org/1999/xlink" x="0px" y="0px"
	 viewBox="0 0 512 512" style="enable-background:new 0 0 512 512;" xml:space="preserve">
<style type="text/css">
	.st0{fill:#A97C50;}
</style>
<path class="st0" d="M192,232c-4.4,0-8,3.6-8,8v32c0,4.4,3.6,8,8,8s8-3.6,8-8v-32C200,235.6,196.4,232,192,232z"/>
<circle class="st0" cx="320" cy="184" r="8"/>
<circle class="st0" cx="320" cy="216" r="8"/>
<circle class="st0" cx="320" cy="248" r="8"/>
<circle class="st0" cx="320" cy="280" r="8"/>
<circle class="st0" cx="320" cy="312" r="8"/>
<circle class="st0" cx="320" cy="344" r="8"/>
<circle class="st0" cx="352" cy="184" r="8"/>
<circle class="st0" cx="352" cy="216" r="8"/>
<circle class="st0" cx="352" cy="248" r="8"/>
<circle class="st0" cx="352" cy="280" r="8"/>
<circle class="st0" cx="352" cy="312" r="8"/>
<circle class="st0" cx="352" cy="344" r="8"/>
<circle class="st0" cx="384" cy="184" r="8"/>
<circle class="st0" cx="384" cy="216" r="8"/>
<circle class="st0" cx="384" cy="248" r="8"/>
<circle class="st0" cx="384" cy="280" r="8"/>
<circle class="st0" cx="384" cy="312" r="8"/>
<circle class="st0" cx="384" cy="344" r="8"/>
<circle class="st0" cx="320" cy="376" r="8"/>
<circle class="st0" cx="352" cy="376" r="8"/>
<circle class="st0" cx="384" cy="376" r="8"/>
<path class="st0" d="M24,496h464c4.4,0,8-3.6,8-8V24c0-4.4-3.6-8-8-8H24c-4.4,0-8,3.6-8,8v464C16,492.4,19.6,496,24,496z M168,32
	h312v32H352c-4.4,0-8,3.6-8,8v24h-40c-3.4,0-6.5,2.2-7.6,5.5l-16,48c-1.4,4.2,0.9,8.7,5.1,10.1c0.8,0.3,1.7,0.4,2.5,0.4h128
	c4.4,0,8-3.6,8-8c0-0.9-0.1-1.7-0.4-2.5l-16-48c-1.1-3.3-4.1-5.5-7.6-5.5h-40V80h120v168h-16v-8c0-4.4-3.6-8-8-8s-8,3.6-8,8v32
	c0,4.4,3.6,8,8,8s8-3.6,8-8v-8h16v168H168V32z M394.2,112l10.7,32H299.1l10.7-32H394.2z M168,448h312v32H168V448z M32,32h120v400H32
	V32z M32,448h120v32H32V448z"/>
</svg>
