<?xml version="1.0" encoding="utf-8"?>
<!-- Generator: Adobe Illustrator 22.1.0, SVG Export Plug-In . SVG Version: 6.00 Build 0)  -->
<svg version="1.1" id="Capa_1" xmlns="http://www.w3.org/2000/svg" xmlns:xlink="http://www.w3.org/1999/xlink" x="0px" y="0px"
	 viewBox="0 0 512 512" style="enable-background:new 0 0 512 512;" xml:space="preserve">
<style type="text/css">
	.st0{fill:#A97C50;}
</style>
<g>
	<g>
		<path class="st0" d="M487.6,51.4h-52.2c-4,0-7.3,3.3-7.3,7.3s3.3,7.3,7.3,7.3h52.2c4.3,0,7.9,3.5,7.9,7.9v415.7
			c0,4.3-3.5,7.9-7.9,7.9H53.9c-20.6,0-37.4-16.8-37.4-37.4c0-20.6,16.8-37.4,37.4-37.4c15.9,0,30,10.1,35.3,25
			c1.2,3.4,4.5,5.8,8.1,5.8c4.7,0,8.6-3.8,8.6-8.6v-379h284.4c4,0,7.3-3.3,7.3-7.3s-3.3-7.3-7.3-7.3H105.8c0-0.2,0-0.5,0-0.7
			c0-0.4,0-0.8-0.1-1.3c0-0.5-0.1-0.9-0.1-1.4c0-0.4-0.1-0.8-0.1-1.2c-0.1-0.4-0.1-0.9-0.2-1.3c-0.1-0.4-0.1-0.8-0.2-1.2
			c-0.1-0.4-0.1-0.9-0.2-1.3c-0.1-0.4-0.2-0.8-0.2-1.2c-0.1-0.4-0.2-0.9-0.3-1.3c-0.1-0.4-0.2-0.8-0.3-1.2c-0.1-0.4-0.2-0.8-0.3-1.3
			c-0.1-0.4-0.2-0.8-0.4-1.2c-0.1-0.4-0.3-0.8-0.4-1.2c-0.1-0.4-0.3-0.8-0.4-1.2c-0.1-0.4-0.3-0.8-0.5-1.2c-0.2-0.4-0.3-0.8-0.5-1.2
			c-0.2-0.4-0.3-0.8-0.5-1.2c-0.2-0.4-0.3-0.8-0.5-1.1c-0.2-0.4-0.4-0.8-0.6-1.1c-0.2-0.4-0.4-0.7-0.6-1.1c-0.2-0.4-0.4-0.7-0.6-1.1
			c-0.2-0.4-0.4-0.7-0.6-1.1c-0.2-0.4-0.4-0.7-0.7-1.1c-0.2-0.3-0.4-0.7-0.7-1c-0.2-0.3-0.5-0.7-0.7-1c-0.2-0.3-0.5-0.7-0.7-1
			c-0.2-0.3-0.5-0.7-0.8-1c-0.3-0.3-0.5-0.6-0.8-1c-0.3-0.3-0.5-0.6-0.8-1c-0.3-0.3-0.5-0.6-0.8-0.9c-0.3-0.3-0.6-0.6-0.8-0.9
			c-0.3-0.3-0.6-0.6-0.8-0.9c-0.3-0.3-0.6-0.6-0.9-0.9c-0.3-0.3-0.6-0.6-0.9-0.8c-0.3-0.3-0.6-0.6-0.9-0.8c-0.3-0.3-0.6-0.5-0.9-0.8
			c-0.3-0.3-0.7-0.5-1-0.8c-0.3-0.3-0.6-0.5-0.9-0.8c-0.3-0.3-0.7-0.5-1-0.8c-0.3-0.2-0.6-0.5-1-0.7C82.7,9,82.4,8.7,82,8.5
			c-0.3-0.2-0.7-0.4-1-0.7c-0.4-0.2-0.7-0.4-1.1-0.7c-0.3-0.2-0.7-0.4-1-0.6c-0.4-0.2-0.8-0.4-1.1-0.6c-0.3-0.2-0.7-0.4-1-0.6
			c-0.4-0.2-0.8-0.4-1.2-0.6c-0.4-0.2-0.7-0.3-1.1-0.5c-0.4-0.2-0.8-0.3-1.2-0.5c-0.4-0.1-0.7-0.3-1.1-0.4c-0.4-0.2-0.9-0.3-1.3-0.5
			c-0.4-0.1-0.7-0.3-1.1-0.4c-0.4-0.1-0.9-0.3-1.3-0.4c-0.4-0.1-0.7-0.2-1.1-0.3c-0.5-0.1-0.9-0.2-1.4-0.3c-0.4-0.1-0.7-0.2-1.1-0.3
			c-0.5-0.1-1-0.2-1.4-0.3c-0.3-0.1-0.7-0.1-1-0.2c-0.5-0.1-1-0.2-1.6-0.2c-0.3,0-0.6-0.1-1-0.1c-0.6-0.1-1.2-0.1-1.8-0.2
			c-0.3,0-0.5-0.1-0.8-0.1C56.5,0.1,55.6,0,54.7,0c-14-0.2-27.3,5.1-37.3,14.9c-10,9.8-15.5,23-15.5,37v273.7c0,4,3.3,7.3,7.3,7.3
			s7.3-3.3,7.3-7.3V51.9c0-10.1,4-19.6,11.2-26.6c7.2-7.1,16.7-10.9,26.8-10.7C74.7,14.9,91.2,32,91.2,52.7v6V424
			c-9.6-9.9-23-15.9-37.4-15.9c-14.7,0-27.9,6.1-37.4,15.9V371c0-4-3.3-7.3-7.3-7.3s-7.3,3.3-7.3,7.3v89.1
			c0,28.6,23.3,51.9,51.9,51.9h433.8c12.4,0,22.4-10.1,22.4-22.4V73.8C510.1,61.4,500,51.4,487.6,51.4z"/>
	</g>
</g>
<g>
	<g>
		<path class="st0" d="M456.4,155.9c4,0,7.3-3.3,7.3-7.3v-22.5c0-10-8.1-18.1-18.1-18.1H142.9c-10,0-18.1,8.1-18.1,18.1v302.6
			c0,10,8.1,18.1,18.1,18.1h302.6c10,0,18.1-8.1,18.1-18.1V211.8c0-4-3.3-7.3-7.3-7.3s-7.3,3.3-7.3,7.3v48.9h-93.5
			c-4,0-7.3,3.3-7.3,7.3s3.3,7.3,7.3,7.3h93.5v61H416c-4,0-7.3,3.3-7.3,7.3s3.3,7.3,7.3,7.3h33.1v77.9c0,2-1.6,3.5-3.5,3.5H274.9
			v-81.5h70.7c4,0,7.3-3.3,7.3-7.3s-3.3-7.3-7.3-7.3H213.1c-4,0-7.3,3.3-7.3,7.3s3.3,7.3,7.3,7.3h47.2v81.5H142.9
			c-2,0-3.5-1.6-3.5-3.5v-77.9H163c4,0,7.3-3.3,7.3-7.3s-3.3-7.3-7.3-7.3h-23.7v-107h110.8c4,0,7.3-3.3,7.3-7.3v-33.8
			c0-4-3.3-7.3-7.3-7.3c-4,0-7.3,3.3-7.3,7.3v26.5H139.3v-88.6c0-2,1.6-3.5,3.5-3.5h100v20.5c0,4,3.3,7.3,7.3,7.3
			c4,0,7.3-3.3,7.3-7.3v-20.5h90.9v101.3c0,4,3.3,7.3,7.3,7.3s7.3-3.3,7.3-7.3V122.6h82.6c2,0,3.5,1.6,3.5,3.5v22.5
			C449.1,152.6,452.4,155.9,456.4,155.9z"/>
	</g>
</g>
</svg>
