<svg height="454pt" viewBox="-30 0 454 454.52232" width="454pt" xmlns="http://www.w3.org/2000/svg"><path d="m147.117188 302.21875c0 3.464844-2.808594 6.273438-6.273438 6.273438s-6.273438-2.808594-6.273438-6.273438 2.808594-6.273438 6.273438-6.273438 6.273438 2.808594 6.273438 6.273438zm0 0"/><path d="m235.425781 397.808594c28.8125 0 52.167969-23.359375 52.167969-52.171875s-23.355469-52.171875-52.171875-52.171875c-28.8125 0-52.171875 23.359375-52.171875 52.171875.035156 28.800781 23.375 52.140625 52.175781 52.171875zm-30.882812-59.289063h9.28125c-.203125-.550781-.339844-1.125-.414063-1.710937-.871094-3.382813-1.339844-6.859375-1.398437-10.351563-.003907-2.789062.523437-5.558593 1.554687-8.148437 2.105469-5.34375 6.292969-9.601563 11.605469-11.789063 2.769531-1.148437 5.746094-1.726562 8.746094-1.699219 11.0625 0 18.960937 6.148438 21.125 16.4375.539062 2.457032-.28125 5.015626-2.152344 6.699219-1.867187 1.683594-4.496094 2.238281-6.882813 1.449219-2.390624-.789062-4.171874-2.800781-4.667968-5.269531-.578125-2.757813-1.878906-5.3125-7.421875-5.3125-1.136719-.019531-2.261719.1875-3.3125.609375-.933594.371094-1.78125.9375-2.480469 1.65625-.675781.703125-1.203125 1.53125-1.558594 2.441406-.375.957031-.5625 1.972656-.558594 3 .0625 2.363281.402344 4.714844 1.011719 7 .414063 1.699219.753907 4 1.039063 5h9.484375c3.863281 0 7 3.132812 7 7s-3.136719 7-7 7h-8.621094c-.035156 1-.082031 1.929688-.152344 2.828125l-.011719.21875c-.167968 2.144531-.570312 4.265625-1.191406 6.328125 3.742188.152344 7.402344 1.117188 10.730469 2.832031 2.734375 1.40625 5.910156 1.6875 8.847656.785157l3.304688-1.011719c3.699219-1.132813 7.613281.949219 8.746093 4.644531 1.132813 3.699219-.945312 7.613281-4.644531 8.746094l-3.300781 1.011718c-6.417969 1.984376-13.355469 1.375-19.328125-1.699218-2.089844-1.070313-4.453125-1.492188-6.789063-1.210938l-9.367187 1.121094c-2.769531.332031-5.46875-1.011719-6.875-3.417969s-1.25-5.417969.394531-7.667969l2.523438-3.445312c1.726562-2.363281 2.765625-5.15625 2.992187-8.074219l.011719-.285156c.042969-.527344.066406-.71875.089844-1.71875h-10.359375c-3.867188 0-7-3.132813-7-7 0-3.863281 3.132812-7 7-7zm0 0"/><path d="m314.402344 262.519531v-114h-284v182.28125l70 .644531v-43.148437c.03125-14.125 11.398437-25.605469 25.523437-25.777344zm0 0"/><path d="m125.828125 414.519531h219.144531c6.3125 0 11.429688-5.117187 11.429688-11.425781v-115.148438c0-6.308593-5.117188-11.425781-11.429688-11.425781h-219.144531c-6.3125 0-11.425781 5.117188-11.425781 11.425781v115.148438c0 6.308594 5.113281 11.425781 11.425781 11.425781zm204.171875-46.289062c11.199219-.003907 20.277344 9.074219 20.277344 20.273437 0 11.199219-9.078125 20.273438-20.277344 20.273438-11.195312 0-20.273438-9.078125-20.273438-20.273438.015626-11.191406 9.082032-20.261718 20.273438-20.273437zm-94.578125-88.765625c36.546875 0 66.171875 29.628906 66.171875 66.171875-.003906 36.546875-29.628906 66.171875-66.175781 66.171875-36.542969 0-66.167969-29.625-66.167969-66.171875.039062-36.527344 29.644531-66.132813 66.175781-66.171875zm-94.582031 2.480468c11.199218-.003906 20.277344 9.074219 20.28125 20.273438 0 11.195312-9.078125 20.277344-20.277344 20.277344-11.195312 0-20.273438-9.078125-20.273438-20.277344.011719-11.191406 9.082032-20.261719 20.273438-20.273438zm0 0"/><path d="m163.929688 454.519531h219c3.003906.058594 5.910156-1.085937 8.066406-3.183593 2.152344-2.097657 3.378906-4.96875 3.40625-7.972657v-114.6875c0-6.296875-5.175782-12.15625-11.476563-12.15625h-12.523437v86.460938c-.035156 14.066406-11.414063 25.472656-25.480469 25.539062h-192.519531v14.84375c.035156 3.011719 1.273437 5.882813 3.4375 7.980469 2.167968 2.09375 5.078125 3.238281 8.089844 3.175781zm0 0"/><path d="m.261719 134.519531h348.246093l-173.898437-134.519531zm0 0"/><path d="m330 394.777344c3.46875 0 6.277344-2.808594 6.277344-6.273438s-2.808594-6.277344-6.273438-6.277344c-3.46875 0-6.277344 2.8125-6.277344 6.277344.003907 3.460938 2.8125 6.269532 6.273438 6.273438zm0 0"/></svg>