<?xml version="1.0" encoding="utf-8"?>
<!-- Generator: Adobe Illustrator 22.1.0, SVG Export Plug-In . SVG Version: 6.00 Build 0)  -->
<svg version="1.1" id="Layer_1" xmlns="http://www.w3.org/2000/svg" xmlns:xlink="http://www.w3.org/1999/xlink" x="0px" y="0px"
	 viewBox="0 0 455.7 455.7" style="enable-background:new 0 0 455.7 455.7;" xml:space="preserve">
<style type="text/css">
	.st0{fill:#A97C50;}
</style>
<path class="st0" d="M227.9,182.6c-25,0-45.3,20.3-45.3,45.3c0,25,20.3,45.3,45.3,45.3c25,0,45.3-20.3,45.3-45.3
	C273.2,202.9,252.9,182.6,227.9,182.6z M227.9,182.6c-25,0-45.3,20.3-45.3,45.3c0,25,20.3,45.3,45.3,45.3c25,0,45.3-20.3,45.3-45.3
	C273.2,202.9,252.9,182.6,227.9,182.6z M303.4,108.7h-151c-24.1,0-43.7,19.6-43.7,43.7v151c0,24.1,19.6,43.7,43.7,43.7h151
	c24.1,0,43.7-19.6,43.7-43.7v-151C347.1,128.3,327.5,108.7,303.4,108.7z M227.9,306.4c-43.3,0-78.5-35.2-78.5-78.5
	c0-43.3,35.2-78.5,78.5-78.5c43.3,0,78.5,35.2,78.5,78.5C306.4,271.1,271.1,306.4,227.9,306.4z M308.9,165.6
	c-10.2,0-18.6-8.3-18.6-18.6s8.3-18.6,18.6-18.6s18.6,8.3,18.6,18.6S319.1,165.6,308.9,165.6z M227.9,182.6
	c-25,0-45.3,20.3-45.3,45.3c0,25,20.3,45.3,45.3,45.3c25,0,45.3-20.3,45.3-45.3C273.2,202.9,252.9,182.6,227.9,182.6z M303.4,108.7
	h-151c-24.1,0-43.7,19.6-43.7,43.7v151c0,24.1,19.6,43.7,43.7,43.7h151c24.1,0,43.7-19.6,43.7-43.7v-151
	C347.1,128.3,327.5,108.7,303.4,108.7z M227.9,306.4c-43.3,0-78.5-35.2-78.5-78.5c0-43.3,35.2-78.5,78.5-78.5
	c43.3,0,78.5,35.2,78.5,78.5C306.4,271.1,271.1,306.4,227.9,306.4z M308.9,165.6c-10.2,0-18.6-8.3-18.6-18.6s8.3-18.6,18.6-18.6
	s18.6,8.3,18.6,18.6S319.1,165.6,308.9,165.6z M227.9,182.6c-25,0-45.3,20.3-45.3,45.3c0,25,20.3,45.3,45.3,45.3
	c25,0,45.3-20.3,45.3-45.3C273.2,202.9,252.9,182.6,227.9,182.6z M0,0v455.7h455.7V0H0z M380.2,303.4c0,42.4-34.5,76.9-76.9,76.9
	h-151c-42.4,0-76.9-34.5-76.9-76.9v-151c0-42.4,34.5-76.9,76.9-76.9h151c42.4,0,76.9,34.5,76.9,76.9L380.2,303.4L380.2,303.4z
	 M303.4,108.7h-151c-24.1,0-43.7,19.6-43.7,43.7v151c0,24.1,19.6,43.7,43.7,43.7h151c24.1,0,43.7-19.6,43.7-43.7v-151
	C347.1,128.3,327.5,108.7,303.4,108.7z M227.9,306.4c-43.3,0-78.5-35.2-78.5-78.5c0-43.3,35.2-78.5,78.5-78.5
	c43.3,0,78.5,35.2,78.5,78.5C306.4,271.1,271.1,306.4,227.9,306.4z M308.9,165.6c-10.2,0-18.6-8.3-18.6-18.6s8.3-18.6,18.6-18.6
	s18.6,8.3,18.6,18.6S319.1,165.6,308.9,165.6z M227.9,182.6c-25,0-45.3,20.3-45.3,45.3c0,25,20.3,45.3,45.3,45.3
	c25,0,45.3-20.3,45.3-45.3C273.2,202.9,252.9,182.6,227.9,182.6z M227.9,182.6c-25,0-45.3,20.3-45.3,45.3c0,25,20.3,45.3,45.3,45.3
	c25,0,45.3-20.3,45.3-45.3C273.2,202.9,252.9,182.6,227.9,182.6z M227.9,182.6c-25,0-45.3,20.3-45.3,45.3c0,25,20.3,45.3,45.3,45.3
	c25,0,45.3-20.3,45.3-45.3C273.2,202.9,252.9,182.6,227.9,182.6z M303.4,108.7h-151c-24.1,0-43.7,19.6-43.7,43.7v151
	c0,24.1,19.6,43.7,43.7,43.7h151c24.1,0,43.7-19.6,43.7-43.7v-151C347.1,128.3,327.5,108.7,303.4,108.7z M227.9,306.4
	c-43.3,0-78.5-35.2-78.5-78.5c0-43.3,35.2-78.5,78.5-78.5c43.3,0,78.5,35.2,78.5,78.5C306.4,271.1,271.1,306.4,227.9,306.4z
	 M308.9,165.6c-10.2,0-18.6-8.3-18.6-18.6s8.3-18.6,18.6-18.6s18.6,8.3,18.6,18.6S319.1,165.6,308.9,165.6z M227.9,182.6
	c-25,0-45.3,20.3-45.3,45.3c0,25,20.3,45.3,45.3,45.3c25,0,45.3-20.3,45.3-45.3C273.2,202.9,252.9,182.6,227.9,182.6z M227.9,182.6
	c-25,0-45.3,20.3-45.3,45.3c0,25,20.3,45.3,45.3,45.3c25,0,45.3-20.3,45.3-45.3C273.2,202.9,252.9,182.6,227.9,182.6z M227.9,182.6
	c-25,0-45.3,20.3-45.3,45.3c0,25,20.3,45.3,45.3,45.3c25,0,45.3-20.3,45.3-45.3C273.2,202.9,252.9,182.6,227.9,182.6z M303.4,108.7
	h-151c-24.1,0-43.7,19.6-43.7,43.7v151c0,24.1,19.6,43.7,43.7,43.7h151c24.1,0,43.7-19.6,43.7-43.7v-151
	C347.1,128.3,327.5,108.7,303.4,108.7z M227.9,306.4c-43.3,0-78.5-35.2-78.5-78.5c0-43.3,35.2-78.5,78.5-78.5
	c43.3,0,78.5,35.2,78.5,78.5C306.4,271.1,271.1,306.4,227.9,306.4z M308.9,165.6c-10.2,0-18.6-8.3-18.6-18.6s8.3-18.6,18.6-18.6
	s18.6,8.3,18.6,18.6S319.1,165.6,308.9,165.6z M227.9,182.6c-25,0-45.3,20.3-45.3,45.3c0,25,20.3,45.3,45.3,45.3
	c25,0,45.3-20.3,45.3-45.3C273.2,202.9,252.9,182.6,227.9,182.6z"/>
</svg>
