<?xml version="1.0" encoding="utf-8"?>
<!-- Generator: Adobe Illustrator 22.1.0, SVG Export Plug-In . SVG Version: 6.00 Build 0)  -->
<svg version="1.1" id="Capa_1" xmlns="http://www.w3.org/2000/svg" xmlns:xlink="http://www.w3.org/1999/xlink" x="0px" y="0px"
	 viewBox="0 0 251.9 251.9" style="enable-background:new 0 0 251.9 251.9;" xml:space="preserve">
<style type="text/css">
	.st0{fill:#A97C50;}
	.st1{fill:#FFFFFF;}
</style>
<circle class="st0" cx="125.9" cy="125.9" r="125.9"/>
<title>logo-white</title>
<g id="graphics">
	<path class="st1" d="M156.2,122.8v-18.7c0-11.3-8.2-20.6-18.3-25.2v-12c0-5.6-3.5-10.6-8.8-12.5V26.6h-9v27.6
		c-5.6,1.8-9.3,6.9-9.4,12.8v12c-10.1,4.6-18.3,14-18.3,25.4v18.3l-18.1,8.2v80h9.1v-74.2l41-18.5l40.8,19v73.8h9.1v-79.6
		L156.2,122.8z M119.8,66.9c0.1-2.5,2.2-4.4,4.7-4.3c2.3,0.1,4.2,2,4.3,4.3v9.2c-3-0.5-6-0.5-9,0V66.9z M147.1,118.6l-9.2-4.3v-18
		c-2.4-2.8-5.5-4.7-9.1-5.6v19.4l-4.4-2l-4.6,2.1V90.9c-5,1.3-7.7,3.8-9.1,5.9v17.6l-9.2,4.2v-14.2c0-10.7,12.5-19.4,22.8-19.4
		s22.8,8.6,22.8,19.2L147.1,118.6z"/>
	<path class="st1" d="M156.2,122.8v-18.7c0-11.3-8.2-20.6-18.3-25.2v-12c0-5.6-3.5-10.6-8.8-12.5V26.6h-4.9v36
		c2.4,0,4.4,1.9,4.5,4.4v9.2c-1.5-0.2-3-0.4-4.5-0.4v9.1c10.3,0,22.8,8.6,22.8,19.2v14.5l-9.1-4.2v-18c-2.4-2.8-5.5-4.7-9.1-5.6
		v19.4l-4.4-2v10l40.8,19v73.8h9.1v-79.6L156.2,122.8z"/>
	<polygon class="st1" points="147.1,210.8 156.2,210.8 156.2,139.6 147.1,135.4 	"/>
	<polygon class="st1" points="128.8,210.8 137.9,210.8 137.9,131.1 128.8,126.9 	"/>
	<polygon class="st1" points="110.7,210.8 119.8,210.8 119.8,127.3 110.7,131.4 	"/>
	<polygon class="st1" points="92.4,210.8 101.5,210.8 101.5,135.5 92.4,139.6 	"/>
	<polygon class="st1" points="128.8,210.8 137.9,210.8 137.9,131.1 128.8,126.9 	"/>
</g>
</svg>
