<?xml version="1.0" encoding="utf-8"?>
<!-- Generator: Adobe Illustrator 22.1.0, SVG Export Plug-In . SVG Version: 6.00 Build 0)  -->
<svg version="1.1" xmlns="http://www.w3.org/2000/svg" xmlns:xlink="http://www.w3.org/1999/xlink" x="0px" y="0px"
	 viewBox="0 0 841.9 566.9" style="enable-background:new 0 0 841.9 566.9;" xml:space="preserve">
<style type="text/css">
	.st0{fill:#80888A;}
	.st1{fill:#C49A6C;}
	.st2{fill:#A97C50;}
</style>
<g id="BG_1_">
</g>
<g id="graphics">
	<g>
		<g>
			<path class="st0" d="M276.7,432.5v-37.7h9.6v37.7H276.7z"/>
			<path class="st0" d="M328.3,432.5l-0.1-24.5l-9,20.7H313l-9-20.7v24.5h-8.6v-37.7h10.5l10.2,22.4l10.2-22.4h10.4v37.7H328.3z"/>
			<path class="st0" d="M362.4,394.8c9.6,0,15.2,4.7,15.2,13.1c0,8.8-5.5,13.9-15.2,13.9h-6.8v10.6H346v-37.7H362.4z M355.6,414.3
				h6.4c4.2,0,6.6-2.1,6.6-6.1c0-3.9-2.4-5.9-6.6-5.9h-6.4V414.3z"/>
			<path class="st0" d="M393.8,402.3v7.5h18v7.5h-18v7.6h20.5v7.5h-30.1v-37.7h29.5v7.5H393.8z"/>
			<path class="st0" d="M439.2,421.9h-0.3h-7.3v10.6h-9.6v-37.7h16.8c10,0,15.7,4.7,15.7,13.1c0,5.8-2.4,9.9-6.8,12.1l7.9,12.4
				h-10.9L439.2,421.9z M438.9,414.3c4.1,0,6.6-2.1,6.6-6.1c0-3.9-2.4-5.9-6.6-5.9h-7.3v12H438.9z"/>
			<path class="st0" d="M462.7,432.5v-37.7h9.6v37.7H462.7z"/>
			<path class="st0" d="M515.3,416.6c0,10-6.6,16.3-17.2,16.3c-10.6,0-17.4-6.3-17.4-16.3v-21.9h9.6v21.9c0,5.1,3.3,8.2,7.9,8.2
				c4.5,0,7.6-3.1,7.6-8.2v-21.9h9.5V416.6z"/>
			<path class="st0" d="M556.8,432.5l-0.1-24.5l-9,20.7h-6.2l-9-20.7v24.5h-8.6v-37.7h10.5l10.2,22.4l10.2-22.4h10.4v37.7H556.8z"/>
		</g>
	</g>
	<g>
		<path class="st1" d="M460.9,254.1v-23.5c0-14.2-10.3-25.8-22.9-31.5v-15c0-7.2-4.6-13.3-11-15.7v-34.9h-11.4v34.6
			c-6.8,2.2-11.7,8.5-11.7,16v15c-12.6,5.8-22.9,17.5-22.9,31.8v22.9l-22.7,10.3v100.3h11.4v-93l51.3-23.3l51.2,23.8v92.5h11.4
			v-99.7L460.9,254.1z M415.3,184.1c0-3,2.6-5.5,5.7-5.5s5.7,2.5,5.7,5.5v11.6c-1.9-0.3-3.8-0.4-5.7-0.4c-1.9,0-3.8,0.2-5.7,0.4
			V184.1z M449.5,248.9l-11.5-5.4v-22.6c-2.1-2.6-5.7-5.5-11.4-7v24.3l-5.5-2.6l-5.8,2.6v-24.2c-6.3,1.7-9.6,4.7-11.4,7.4v22
			l-11.5,5.2v-17.8c0-13.5,15.6-24.3,28.6-24.3c12.9,0,28.6,10.7,28.6,24.1V248.9z"/>
		<path class="st2" d="M460.9,254.1v-23.5c0-14.2-10.3-25.8-22.9-31.5v-15c0-7.2-4.6-13.3-11-15.7v-34.9h-6.1v45.1
			c3.1,0,5.7,2.5,5.7,5.5v11.6c-1.9-0.3-3.8-0.4-5.7-0.4v11.4c12.9,0,28.6,10.7,28.6,24.1v18.2l-11.5-5.4v-22.6
			c-2.1-2.6-5.7-5.5-11.4-7v24.3l-5.5-2.6v12.5l51.1,23.8v92.5h11.4v-99.7L460.9,254.1z"/>
		<polygon class="st2" points="449.5,364.4 460.9,364.4 460.9,275.2 449.5,269.9 		"/>
		<polygon class="st1" points="426.6,364.4 438,364.4 438,264.6 426.6,259.3 		"/>
		<polygon class="st1" points="403.9,364.4 415.3,364.4 415.3,259.7 403.9,264.9 		"/>
		<polygon class="st1" points="381,364.4 392.4,364.4 392.4,270.1 381,275.2 		"/>
		<polygon class="st2" points="426.6,364.4 438,364.4 438,264.6 426.6,259.3 		"/>
	</g>
	<g>
		<path class="st0" d="M276.9,442h10c0.5,0,1.2,0,2.1,0.1c0.9,0,1.8,0.1,2.8,0.3c1,0.2,2,0.5,3.1,0.9c1,0.4,2,1,2.8,1.7
			c0.8,0.8,1.5,1.7,2.1,2.9c0.5,1.2,0.8,2.6,0.8,4.2c0,1.8-0.3,3.3-0.9,4.5c-0.6,1.2-1.4,2.2-2.4,2.9c-1,0.7-2,1.3-3.2,1.6
			c-1.2,0.4-2.3,0.6-3.3,0.8l11.1,18.4h-4.1l-10.7-18.1h-6.6v18.1h-3.6V442z M280.5,458.8h7.6c1.9,0,3.4-0.2,4.6-0.7
			c1.2-0.5,2.1-1,2.7-1.7c0.6-0.7,1.1-1.4,1.3-2.2c0.2-0.8,0.4-1.5,0.4-2.2c0-0.6-0.1-1.4-0.4-2.2c-0.2-0.8-0.7-1.5-1.3-2.2
			s-1.6-1.3-2.7-1.7c-1.2-0.5-2.7-0.7-4.6-0.7h-7.6V458.8z"/>
		<path class="st0" d="M308.9,442h23.4v3.2h-19.8v13.6h18.6v3.2h-18.6V477h20.7v3.2h-24.2V442z"/>
		<path class="st0" d="M352.7,442h3.7l16.1,38.2h-4l-4.2-10.2H344l-4.3,10.2H336L352.7,442z M354.3,445.9l-8.9,21H363L354.3,445.9z"
			/>
		<path class="st0" d="M377.9,442h3.6v35h17.8v3.2h-21.4V442z"/>
		<path class="st0" d="M420,473.1c0.9,1.6,2.2,2.8,3.6,3.6c1.5,0.8,3.2,1.2,5.1,1.2c1.2,0,2.3-0.2,3.3-0.5c1-0.4,2-0.9,2.7-1.5
			c0.8-0.6,1.4-1.4,1.8-2.3s0.7-2,0.7-3.1c0-1.3-0.3-2.4-0.8-3.3c-0.6-0.9-1.3-1.6-2.2-2.1c-0.9-0.6-2-1-3.2-1.4
			c-1.2-0.4-2.4-0.8-3.6-1.2c-1.2-0.4-2.4-0.8-3.6-1.3c-1.2-0.5-2.2-1.2-3.2-2c-0.9-0.8-1.7-1.8-2.2-3.1c-0.6-1.2-0.8-2.7-0.8-4.5
			c0-1.7,0.3-3.2,1-4.5c0.7-1.3,1.6-2.4,2.7-3.3c1.1-0.9,2.4-1.5,3.9-2c1.5-0.4,3-0.7,4.6-0.7c2.1,0,4,0.4,5.8,1.1
			c1.8,0.7,3.3,2,4.6,3.7l-3.1,2.2c-0.9-1.3-2-2.2-3.2-2.8c-1.2-0.6-2.6-0.9-4.3-0.9c-1.2,0-2.2,0.2-3.3,0.5c-1,0.3-2,0.8-2.7,1.3
			c-0.8,0.6-1.4,1.3-1.9,2.2c-0.5,0.9-0.7,2-0.7,3.2c0,1.9,0.5,3.4,1.5,4.4c1,1,2.2,1.8,3.6,2.4c1.5,0.6,3,1.1,4.8,1.6
			c1.7,0.5,3.3,1.1,4.8,1.8c1.5,0.8,2.7,1.8,3.6,3.2c1,1.4,1.5,3.2,1.5,5.6c0,1.7-0.3,3.3-1,4.6c-0.6,1.3-1.5,2.5-2.6,3.4
			c-1.1,0.9-2.4,1.6-3.8,2.1c-1.4,0.5-2.9,0.7-4.5,0.7c-2.5,0-4.8-0.4-7-1.3c-2.1-0.9-3.9-2.4-5.5-4.5L420,473.1z"/>
		<path class="st0" d="M457.5,445.2h-13.1V442h29.7v3.2H461v35h-3.6V445.2z"/>
		<path class="st0" d="M488,442h3.7l16.1,38.2h-4l-4.2-10.2h-20.2l-4.3,10.2h-3.7L488,442z M489.7,445.9l-8.9,21h17.5L489.7,445.9z"
			/>
		<path class="st0" d="M518.1,445.2H505V442h29.7v3.2h-13.1v35h-3.6V445.2z"/>
		<path class="st0" d="M540.6,442H564v3.2h-19.8v13.6h18.6v3.2h-18.6V477h20.7v3.2h-24.2V442z"/>
	</g>
</g>
</svg>
