<svg xmlns="http://www.w3.org/2000/svg" viewBox="0 0 125.26 230.84"><title>logo</title><g id="graphics"><path d="M460.87,254.14V230.67c0-14.15-10.28-25.8-22.9-31.55v-15a16.86,16.86,0,0,0-11-15.71V133.56H415.65v34.59a16.87,16.87,0,0,0-11.73,16v15c-12.62,5.79-22.9,17.52-22.9,31.77v22.91l-22.71,10.29V364.41h11.37v-93L421,248.18l51.18,23.75v92.48h11.37V264.68Zm-45.59-70a5.67,5.67,0,0,1,11.33,0V195.7a35.88,35.88,0,0,0-11.33,0Zm34.23,64.73L438,243.52V220.93a21.48,21.48,0,0,0-11.36-7v24.32l-5.53-2.56-5.8,2.63V214.14c-6.27,1.68-9.6,4.7-11.36,7.35v22l-11.54,5.22V230.92c0-13.46,15.63-24.3,28.56-24.3s28.57,10.73,28.57,24Z" transform="translate(-358.31 -133.56)" style="fill:#c49a6c"/><path d="M460.87,254.14V230.67c0-14.15-10.28-25.8-22.9-31.55v-15a16.86,16.86,0,0,0-11-15.71V133.56h-6.08v45.11a5.65,5.65,0,0,1,5.67,5.47V195.7a37.56,37.56,0,0,0-5.67-.45v11.37c12.94,0,28.57,10.73,28.57,24v18.2L438,243.52V220.93a21.48,21.48,0,0,0-11.36-7v24.32l-5.53-2.56v12.5l51.13,23.75v92.48h11.37V264.68Z" transform="translate(-358.31 -133.56)" style="fill:#a97c50"/><polygon points="91.19 230.84 102.56 230.84 102.56 141.64 91.19 136.37 91.19 230.84" style="fill:#a97c50"/><polygon points="68.29 230.84 79.66 230.84 79.66 131.02 68.29 125.74 68.29 230.84" style="fill:#c49a6c"/><polygon points="45.6 230.84 56.97 230.84 56.97 126.16 45.6 131.31 45.6 230.84" style="fill:#c49a6c"/><polygon points="22.71 230.84 34.07 230.84 34.07 136.53 22.71 141.68 22.71 230.84" style="fill:#c49a6c"/><polygon points="68.29 230.84 79.66 230.84 79.66 131.02 68.29 125.74 68.29 230.84" style="fill:#a97c50"/></g></svg>