<svg xmlns="http://www.w3.org/2000/svg" viewBox="0 0 841.89 444.87"><title>logo-frame</title><g id="BG"><rect width="841.89" height="444.87" style="opacity:0.8"/></g><g id="graphics"><path d="M276.66,432.47V394.79h9.59v37.68Z" transform="translate(0 -86.84)" style="fill:#80888a"/><path d="M328.34,432.47l0-24.49-9.05,20.72H313L304,408v24.49h-8.56V394.73h10.5l10.23,22.45,10.23-22.45h10.44v37.74Z" transform="translate(0 -86.84)" style="fill:#80888a"/><path d="M362.41,394.79c9.64,0,15.18,4.74,15.18,13.13,0,8.83-5.54,13.95-15.18,13.95h-6.84v10.6H346V394.79Zm-6.84,19.54h6.35c4.2,0,6.63-2.1,6.63-6.08s-2.43-5.93-6.63-5.93h-6.35Z" transform="translate(0 -86.84)" style="fill:#80888a"/><path d="M393.79,402.32v7.49h18v7.53h-18v7.59H414.3v7.54H384.21V394.79h29.5v7.53Z" transform="translate(0 -86.84)" style="fill:#80888a"/><path d="M439.22,421.87h-7.54v10.6H422.1V394.79H439c10,0,15.66,4.74,15.66,13.13,0,5.76-2.42,9.91-6.83,12.12l7.91,12.43H444.82Zm-.27-7.54c4.14,0,6.57-2.1,6.57-6.08s-2.43-5.93-6.57-5.93h-7.27v12Z" transform="translate(0 -86.84)" style="fill:#80888a"/><path d="M462.68,432.47V394.79h9.59v37.68Z" transform="translate(0 -86.84)" style="fill:#80888a"/><path d="M515.33,416.64c0,10-6.62,16.26-17.17,16.26s-17.39-6.3-17.39-16.26V394.79h9.58v21.85c0,5.12,3.28,8.24,7.86,8.24s7.59-3.12,7.59-8.24V394.79h9.53Z" transform="translate(0 -86.84)" style="fill:#80888a"/><path d="M556.78,432.47,556.72,408l-9,20.72h-6.25l-9-20.72v24.49h-8.56V394.73h10.5l10.23,22.45,10.22-22.45h10.45v37.74Z" transform="translate(0 -86.84)" style="fill:#80888a"/><path d="M460.87,254.14V230.67c0-14.15-10.28-25.8-22.9-31.55v-15a16.86,16.86,0,0,0-11-15.71V133.56H415.65v34.59a16.87,16.87,0,0,0-11.73,16v15c-12.62,5.79-22.9,17.52-22.9,31.77v22.91l-22.71,10.29V364.41h11.37v-93L421,248.18l51.18,23.75v92.48h11.37V264.68Zm-45.59-70a5.67,5.67,0,0,1,11.33,0V195.7a35.88,35.88,0,0,0-11.33,0Zm34.23,64.73L438,243.52V220.93a21.48,21.48,0,0,0-11.36-7v24.32l-5.53-2.56-5.8,2.63V214.14c-6.27,1.68-9.6,4.7-11.36,7.35v22l-11.54,5.22V230.92c0-13.46,15.63-24.3,28.56-24.3s28.57,10.73,28.57,24Z" transform="translate(0 -86.84)" style="fill:#c49a6c"/><path d="M460.87,254.14V230.67c0-14.15-10.28-25.8-22.9-31.55v-15a16.86,16.86,0,0,0-11-15.71V133.56h-6.08v45.11a5.65,5.65,0,0,1,5.67,5.47V195.7a37.56,37.56,0,0,0-5.67-.45v11.37c12.94,0,28.57,10.73,28.57,24v18.2L438,243.52V220.93a21.48,21.48,0,0,0-11.36-7v24.32l-5.53-2.56v12.5l51.13,23.75v92.48h11.37V264.68Z" transform="translate(0 -86.84)" style="fill:#a97c50"/><polygon points="449.51 277.57 460.87 277.57 460.87 188.37 449.51 183.09 449.51 277.57" style="fill:#a97c50"/><polygon points="426.61 277.57 437.97 277.57 437.97 177.74 426.61 172.47 426.61 277.57" style="fill:#c49a6c"/><polygon points="403.92 277.57 415.28 277.57 415.28 172.88 403.92 178.03 403.92 277.57" style="fill:#c49a6c"/><polygon points="381.02 277.57 392.38 277.57 392.38 183.26 381.02 188.41 381.02 277.57" style="fill:#c49a6c"/><polygon points="426.61 277.57 437.97 277.57 437.97 177.74 426.61 172.47 426.61 277.57" style="fill:#a97c50"/><path d="M276.9,442H287c.5,0,1.18,0,2.05,0a21.93,21.93,0,0,1,2.81.33,17.73,17.73,0,0,1,3.07.86,8.68,8.68,0,0,1,2.81,1.73,9,9,0,0,1,2.05,2.86,9.91,9.91,0,0,1,.81,4.21,9.65,9.65,0,0,1-.94,4.54,8.73,8.73,0,0,1-2.38,2.89,10,10,0,0,1-3.16,1.65,20,20,0,0,1-3.29.75L301.9,480.2h-4l-10.74-18.14h-6.65V480.2H276.9Zm3.56,16.85H288a12.65,12.65,0,0,0,4.57-.7,7.55,7.55,0,0,0,2.72-1.73,5.47,5.47,0,0,0,1.33-2.22A7.81,7.81,0,0,0,297,452a7.93,7.93,0,0,0-.35-2.16,5.51,5.51,0,0,0-1.33-2.21,7.55,7.55,0,0,0-2.72-1.73,12.43,12.43,0,0,0-4.57-.7h-7.56Z" transform="translate(0 -86.84)" style="fill:#fff"/><path d="M308.92,442H332.3v3.24H312.49v13.61h18.57v3.24H312.49V477h20.68v3.24H308.92Z" transform="translate(0 -86.84)" style="fill:#fff"/><path d="M352.66,442h3.67l16.09,38.23h-4l-4.16-10.15H344L339.7,480.2H336Zm1.68,3.89-8.91,20.95H363Z" transform="translate(0 -86.84)" style="fill:#fff"/><path d="M377.93,442h3.57v35h17.82v3.24H377.93Z" transform="translate(0 -86.84)" style="fill:#fff"/><path d="M420,473.13a9.17,9.17,0,0,0,3.64,3.62,10.79,10.79,0,0,0,5.11,1.18,10.23,10.23,0,0,0,3.35-.54,8.27,8.27,0,0,0,2.72-1.51,7,7,0,0,0,1.84-2.35,6.92,6.92,0,0,0,.67-3.1,6.07,6.07,0,0,0-.83-3.3,6.77,6.77,0,0,0-2.25-2.13,16.32,16.32,0,0,0-3.15-1.43c-1.17-.4-2.38-.79-3.62-1.19a36.37,36.37,0,0,1-3.62-1.35,12.09,12.09,0,0,1-3.16-2,8.79,8.79,0,0,1-2.24-3.05,10.89,10.89,0,0,1-.84-4.54,9.94,9.94,0,0,1,1-4.51,9.73,9.73,0,0,1,2.7-3.29,12.11,12.11,0,0,1,3.92-2,15.78,15.78,0,0,1,4.64-.67,15,15,0,0,1,5.81,1.11,11,11,0,0,1,4.61,3.69L437.23,448a8.46,8.46,0,0,0-7.46-3.78,11.47,11.47,0,0,0-3.29.46,8,8,0,0,0-2.73,1.35,6.67,6.67,0,0,0-1.86,2.24,6.78,6.78,0,0,0-.7,3.18,6.15,6.15,0,0,0,1.46,4.41,10.23,10.23,0,0,0,3.64,2.42,37.78,37.78,0,0,0,4.75,1.57,22.59,22.59,0,0,1,4.75,1.81,10.28,10.28,0,0,1,3.65,3.16,9.42,9.42,0,0,1,1.46,5.59,10.46,10.46,0,0,1-1,4.59,10.15,10.15,0,0,1-2.62,3.37,11.36,11.36,0,0,1-3.81,2.08,14.37,14.37,0,0,1-4.48.7,18,18,0,0,1-7-1.32,12.78,12.78,0,0,1-5.45-4.45Z" transform="translate(0 -86.84)" style="fill:#fff"/><path d="M457.47,445.21H444.41V442h29.7v3.24H461v35h-3.57Z" transform="translate(0 -86.84)" style="fill:#fff"/><path d="M488,442h3.67L507.8,480.2h-4l-4.16-10.15H479.4l-4.32,10.15h-3.73Zm1.67,3.89-8.91,20.95h17.55Z" transform="translate(0 -86.84)" style="fill:#fff"/><path d="M518.12,445.21H505.05V442h29.7v3.24H521.68v35h-3.56Z" transform="translate(0 -86.84)" style="fill:#fff"/><path d="M540.63,442H564v3.24H544.2v13.61h18.57v3.24H544.2V477h20.68v3.24H540.63Z" transform="translate(0 -86.84)" style="fill:#fff"/></g></svg>