<?xml version="1.0" encoding="utf-8"?>
<!-- Generator: Adobe Illustrator 22.1.0, SVG Export Plug-In . SVG Version: 6.00 Build 0)  -->
<svg version="1.1" id="Layer_1" xmlns="http://www.w3.org/2000/svg" xmlns:xlink="http://www.w3.org/1999/xlink" x="0px" y="0px"
	 viewBox="0 0 512 512" style="enable-background:new 0 0 512 512;" xml:space="preserve">
<style type="text/css">
	.st0{fill:#A97C50;}
</style>
<g>
	<g>
		<path class="st0" d="M503.3,441H394.1v-51.8c23.9-3.2,45-18.1,57.3-40.7c16.3-3.7,31.2-13.2,42.1-26.9
			c11.9-14.9,18.5-34,18.5-53.8c0-30-15.4-57.8-39.5-72.2c-2.5-50-41.1-89.9-88.1-89.9c-14.8,0-29.4,4-42.3,11.6
			c-4,2.4-5.3,7.5-3,11.6c2.4,4,7.5,5.3,11.6,3c10.3-6.1,22-9.3,33.7-9.3c39.3,0,71.3,35.1,71.3,78.1c0,3.2,1.8,6.1,4.6,7.5
			c21.1,10.7,34.8,34.1,34.8,59.6c0,32.2-21.8,60.1-50.8,64.9c-2.7,0.4-5,2.2-6.2,4.7c-9,18.8-25.4,31.5-44,34.8v-74.6l41.5-38.2
			c3.4-3.2,3.7-8.5,0.5-11.9s-8.5-3.7-11.9-0.5l-30.1,27.7v-56.3c0-4.7-3.8-8.4-8.4-8.4s-8.4,3.8-8.4,8.4v102.1l-30.1-27.7
			c-3.4-3.2-8.8-2.9-11.9,0.5c-3.2,3.4-2.9,8.8,0.5,11.9l41.5,38.2v29.3c-19.9-2.6-37.4-15.7-46.8-35.6c-1.1-2.4-3.3-4.1-5.9-4.6
			c-28-5.9-48.3-33-48.3-64.4c0-24.7,12.5-47.1,32.6-58.4c2.7-1.5,4.3-4.4,4.3-7.5c0-0.2,0-0.5,0-0.7c0-0.1,0-0.3,0-0.4
			c0-17.6,5.2-34.2,15-48c2.7-3.8,1.8-9.1-2-11.8s-9.1-1.8-11.8,2c-11.2,15.8-17.4,34.4-18,54.2c-22.9,14.9-36.9,41.5-36.9,70.6
			c0,37.8,24,70.7,57.6,79.9c12.7,23.8,35.1,39.3,60.3,41.7V441h-5.3c-1.2-22.1-16.3-41.3-37.3-47.8c-6.6-14-19.4-24.2-34.5-27.5
			c-4.9-22.4-25.1-39.2-48.7-39.2c-18.2,0-34.6,9.8-43.4,25.3c-17.3,0.7-32.8,9.9-41.7,24.2c-5.6-15.3-19.8-26.4-36.5-27.6v-22.2
			c22.8-3.2,42.9-17.4,54.7-39c15.7-3.6,29.9-12.7,40.4-25.9c11.5-14.4,17.8-32.7,17.8-51.7c0-28.8-14.7-55.4-37.9-69.3
			c-2.5-48-39.6-86.3-84.7-86.3c-17.3,0-34,5.6-48.1,16.1c-3.7,2.8-4.5,8.1-1.7,11.8c2.8,3.7,8.1,4.5,11.8,1.7
			c11-8.2,24.1-12.6,37.8-12.6c37.4,0,67.9,33.4,67.9,74.4c0,3.2,1.8,6.1,4.6,7.5c20.1,10.2,33.1,32.5,33.1,56.8
			c0,30.7-20.8,57.2-48.3,61.8c-2.7,0.4-5,2.2-6.2,4.7c-8.5,17.7-23.9,29.7-41.5,33v-70.9l39.6-36.4c3.4-3.2,3.7-8.5,0.5-11.9
			s-8.5-3.7-11.9-0.5l-28.2,25.9v-53.1c0-4.7-3.8-8.4-8.4-8.4s-8.4,3.8-8.4,8.4v96.9l-28.2-25.9c-3.4-3.2-8.8-2.9-11.9,0.5
			c-3.2,3.4-2.9,8.8,0.5,11.9l39.6,36.4v27.4c-18.8-2.6-35.3-15-44.2-33.9c-1.1-2.4-3.3-4.1-5.9-4.6c-26.6-5.7-46-31.4-46-61.3
			c0-23.6,11.9-44.9,31-55.6c2.7-1.5,4.3-4.4,4.3-7.4c0-0.2,0-0.5,0-0.7c0-0.1,0-0.2,0-0.4c0-10.4,1.9-20.5,5.7-30
			c1.1-2.8,2.4-5.6,3.9-8.2c2.2-4.1,0.7-9.2-3.4-11.4c-4.1-2.2-9.2-0.7-11.4,3.4c-1.8,3.2-3.3,6.6-4.7,10
			c-4.2,10.4-6.5,21.3-6.9,32.7C13.4,156.3,0,181.8,0,209.7c0,36.3,23,67.9,55.3,76.8c12.1,22.8,33.5,37.5,57.6,40v24.1
			c-9.2,3.2-17.1,9.6-22.2,18.2c-20.5,1.2-37,16.3-40.2,36.2c-15.1,6.7-26.3,20-30.5,35.9H8.4c-4.7,0-8.4,3.8-8.4,8.4
			s3.8,8.4,8.4,8.4h18.5h190.4h145.8h140.1c4.7,0,8.4-3.8,8.4-8.4S508,441,503.3,441z M37.6,441c4-10.3,12.5-18.4,23.3-21.9
			c3.4-1.1,5.7-4.2,5.8-7.8c0.4-14.4,12.1-25.7,26.5-25.7c0.6,0,1.2,0,2,0.1c3.6,0.3,7-1.8,8.4-5.1c3.9-9.4,13-15.4,23.2-15.4
			c13,0,24,10.2,25,23.1c0.3,4.1,3.6,7.4,7.8,7.8c2.3,0.2,4.5,0.7,6.6,1.5l0,0c0.4,0.1,0.8,0.3,1.2,0.5c0.1,0,0.2,0.1,0.2,0.1
			c0.4,0.2,0.7,0.3,1.1,0.5c0.1,0.1,0.2,0.1,0.4,0.2c0.5,0.2,1,0.5,1.4,0.8c0.3,0.2,0.5,0.3,0.8,0.5c0.2,0.1,0.4,0.2,0.5,0.4
			c0.3,0.2,0.6,0.4,0.8,0.6c0.2,0.1,0.3,0.2,0.5,0.3c0.3,0.3,0.6,0.5,1,0.8c0.1,0.1,0.2,0.1,0.3,0.2c0.8,0.7,1.6,1.5,2.3,2.4
			c0.1,0.1,0.1,0.2,0.2,0.2c0.3,0.4,0.6,0.7,0.9,1.1c0.1,0.1,0.1,0.1,0.2,0.2c0.7,0.9,1.3,1.8,1.8,2.8c0.1,0.1,0.1,0.3,0.2,0.4
			c0.2,0.4,0.4,0.7,0.5,1.1c0.1,0.1,0.1,0.3,0.2,0.4c0.2,0.5,0.4,1,0.6,1.5c0,0,0,0,0,0.1c1,2.7,3.3,4.8,6.2,5.4
			c0.8,0.2,1.5,0.4,2.2,0.6c0.2,0.1,0.5,0.2,0.7,0.2c0.5,0.2,1,0.3,1.4,0.5c0.3,0.1,0.5,0.2,0.8,0.3c0.4,0.2,0.8,0.4,1.2,0.6
			c0.3,0.1,0.5,0.3,0.8,0.4c0.4,0.2,0.8,0.4,1.1,0.7c0.3,0.2,0.5,0.3,0.8,0.5c0.4,0.2,0.7,0.5,1.1,0.7c0.3,0.2,0.5,0.4,0.7,0.6
			c0.3,0.3,0.7,0.6,1,0.8c0.2,0.2,0.5,0.4,0.7,0.6c0.3,0.3,0.7,0.6,1,1c0.2,0.2,0.4,0.4,0.6,0.6c0.4,0.4,0.7,0.8,1.1,1.2
			c0.1,0.2,0.3,0.3,0.4,0.5c0.5,0.6,0.9,1.2,1.3,1.8c0.1,0.1,0.2,0.3,0.2,0.4c0.3,0.5,0.6,1,0.9,1.5c0.1,0.2,0.2,0.5,0.4,0.7
			c0.2,0.4,0.4,0.8,0.6,1.3c0.1,0.3,0.2,0.5,0.4,0.8c0.2,0.4,0.4,0.8,0.5,1.2c0.1,0.3,0.2,0.6,0.3,0.9c0.1,0.4,0.3,0.8,0.4,1.3
			c0.1,0.3,0.2,0.6,0.2,0.9c0.1,0.4,0.2,0.9,0.3,1.3c0.1,0.3,0.1,0.6,0.2,0.9c0,0.1,0,0.3,0.1,0.4L37.6,441L37.6,441z M225.9,441
			L225.9,441c0-0.1,0-0.2,0-0.2c-0.1-1-0.2-2-0.4-3c0-0.1,0-0.1,0-0.2c-0.2-1-0.4-2-0.6-3v-0.1c-0.2-1-0.5-1.9-0.8-2.9
			c0-0.1-0.1-0.2-0.1-0.3c-0.3-0.9-0.6-1.8-1-2.7c-0.1-0.1-0.1-0.3-0.2-0.4c-0.4-0.9-0.7-1.7-1.2-2.6c-0.1-0.1-0.1-0.3-0.2-0.4
			c-0.4-0.8-0.9-1.7-1.3-2.5c-0.1-0.1-0.1-0.2-0.2-0.4c-0.5-0.8-1-1.6-1.5-2.4c-0.1-0.1-0.1-0.2-0.2-0.3c-0.6-0.8-1.1-1.6-1.8-2.4
			l-0.1-0.1c-0.6-0.8-1.3-1.6-2-2.3l0,0c-0.7-0.7-1.4-1.5-2.1-2.2c-0.1-0.1-0.1-0.1-0.2-0.2c-0.7-0.7-1.4-1.3-2.2-1.9
			c-0.1-0.1-0.2-0.2-0.3-0.2c-0.7-0.6-1.5-1.2-2.3-1.7c-0.1-0.1-0.2-0.2-0.4-0.3c-0.8-0.5-1.6-1.1-2.4-1.5c-0.1-0.1-0.3-0.2-0.4-0.2
			c-0.8-0.5-1.7-0.9-2.5-1.4c-0.1-0.1-0.2-0.1-0.4-0.2c-0.9-0.4-1.8-0.8-2.7-1.2c-0.1,0-0.2-0.1-0.2-0.1c-1-0.4-1.9-0.8-2.9-1.1l0,0
			c0-0.1-0.1-0.2-0.1-0.3c-0.3-0.7-0.7-1.4-1.1-2c-0.2-0.3-0.4-0.7-0.6-1c-0.2-0.4-0.5-0.8-0.7-1.2c-0.2-0.4-0.5-0.7-0.8-1.1
			c-0.2-0.3-0.5-0.6-0.7-0.9c-0.3-0.4-0.6-0.8-0.9-1.2c-0.2-0.2-0.4-0.4-0.6-0.7c-0.7-0.9-1.5-1.7-2.2-2.5c-0.1-0.1-0.3-0.3-0.4-0.4
			c-0.4-0.4-0.8-0.8-1.2-1.1c-0.2-0.2-0.5-0.4-0.7-0.6c-0.4-0.3-0.8-0.7-1.2-1c-0.3-0.2-0.6-0.5-0.9-0.7c-0.4-0.3-0.7-0.6-1.1-0.8
			c-0.5-0.4-1.1-0.8-1.6-1.1c-0.1-0.1-0.3-0.2-0.4-0.3c6.1-10.4,17.4-17,29.8-17c0.8,0,1.6,0,2.6,0.1c3.6,0.3,7-1.8,8.4-5.1
			c5.2-12.3,17.1-20.2,30.4-20.2c17.1,0,31.5,13.3,32.9,30.4c0.3,4.1,3.6,7.4,7.8,7.8c12.9,1,24,9.5,28.4,21.6
			c1,2.7,3.3,4.8,6.2,5.4c15.6,3.4,27.1,16.7,28.4,32.4L225.9,441L225.9,441z"/>
	</g>
</g>
</svg>
