<?xml version="1.0" encoding="utf-8"?>
<!-- Generator: Adobe Illustrator 22.1.0, SVG Export Plug-In . SVG Version: 6.00 Build 0)  -->
<svg version="1.1" id="Capa_1" xmlns="http://www.w3.org/2000/svg" xmlns:xlink="http://www.w3.org/1999/xlink" x="0px" y="0px"
	 viewBox="0 0 455.7 455.7" style="enable-background:new 0 0 455.7 455.7;" xml:space="preserve">
<style type="text/css">
	.st0{fill:#A97C50;}
</style>
<path class="st0" d="M0,0v455.7h455.7V0H0z M228,386.7c-27.3,0-54.1-7-77.8-20.3l-81.8,21l22.3-79.3c-14.4-24.4-21.9-52.1-21.9-80.6
	c0-87.8,71.4-159.2,159.2-159.2s159.2,71.4,159.2,159.2S315.9,386.7,228,386.7z"/>
<path class="st0" d="M227.9,95.7c-72.8,0-132.2,59.3-132.2,132.2c0,25.4,7.2,50.1,20.9,71.3l3.3,5.1L107,350l47.2-12.2l4.9,3
	c20.7,12.6,44.4,19.3,68.8,19.3c72.9,0,132.2-59.3,132.2-132.2S300.7,95.7,227.9,95.7z M308.5,267.7l-1.6,7.7
	c-1.9,8.7-7,16.4-14.5,21.2c-9.5,6-21.7,9-37.3,4.6c-48.3-13.7-75.6-45.7-90.3-65.7c-14.7-20-20.4-40-16.7-56.3
	c2.5-10.9,10.5-19.4,15.5-23.7c2.5-2.1,5.7-3.2,8.9-3l10.3,0.6c2,0.1,3.8,1.4,4.6,3.3l15,35.2c0.8,1.9,0.4,4.1-0.9,5.6l-13.1,15.1
	c-1.1,1.2-1.2,3-0.5,4.4c17.3,33.2,48.7,46.4,58.1,49.7c1.6,0.6,3.4,0,4.4-1.3l13.7-17.8c1.5-2,4.2-2.6,6.5-1.6l34.9,16
	C307.8,262.8,309,265.3,308.5,267.7z"/>
</svg>
